<svg width="52" height="53" viewBox="0 0 52 53" fill="none" xmlns="http://www.w3.org/2000/svg">
<rect y="0.5" width="52" height="52" rx="12" fill="#D9D9D9"/>
<path d="M45.0674 17.3919C47.3224 22.108 47.7504 27.4923 46.269 32.5055C44.7876 37.5187 41.5017 41.8055 37.0455 44.5385C32.5893 47.2715 27.2787 48.2569 22.1386 47.3047C16.9986 46.3524 12.3934 43.5299 9.21204 39.3819C6.03063 35.234 4.49848 30.0546 4.91128 24.8434C5.32409 19.6322 7.65258 14.7586 11.4474 11.1633C15.2422 7.5679 20.2342 5.50564 25.4601 5.3745C30.686 5.24336 35.7752 7.05263 39.7455 10.4531L44.3504 5.84625C44.6553 5.54133 45.0689 5.37003 45.5001 5.37003C45.9313 5.37003 46.3448 5.54133 46.6498 5.84625C46.9547 6.15117 47.126 6.56472 47.126 6.99594C47.126 7.42715 46.9547 7.84071 46.6498 8.14562L27.1498 27.6456C26.8448 27.9505 26.4313 28.1218 26.0001 28.1218C25.5689 28.1218 25.1553 27.9505 24.8504 27.6456C24.5455 27.3407 24.3742 26.9272 24.3742 26.4959C24.3742 26.0647 24.5455 25.6512 24.8504 25.3462L30.481 19.7156C28.955 18.7064 27.1331 18.2417 25.3102 18.3968C23.4873 18.5519 21.77 19.3177 20.4365 20.5702C19.103 21.8227 18.2312 23.4886 17.9622 25.2983C17.6933 27.1079 18.043 28.9553 18.9547 30.5415C19.8664 32.1277 21.2868 33.3597 22.9858 34.0382C24.6849 34.7167 26.5632 34.8019 28.3167 34.28C30.0702 33.7581 31.5962 32.6597 32.6478 31.1626C33.6993 29.6655 34.2148 27.8573 34.1109 26.0308C34.0989 25.8174 34.129 25.6037 34.1996 25.402C34.2701 25.2002 34.3798 25.0143 34.5222 24.855C34.6646 24.6956 34.837 24.5658 35.0295 24.473C35.2221 24.3803 35.4311 24.3264 35.6444 24.3144C36.0754 24.2901 36.4984 24.4381 36.8203 24.7257C36.9797 24.8681 37.1094 25.0405 37.2022 25.2331C37.2949 25.4256 37.3489 25.6346 37.3609 25.848C37.509 28.4333 36.7706 30.9918 35.2676 33.1006C33.7647 35.2094 31.5872 36.7423 29.095 37.4458C26.6029 38.1494 23.9452 37.9816 21.5614 36.9701C19.1775 35.9586 17.2101 34.164 15.9844 31.8829C14.7587 29.6017 14.348 26.9707 14.8202 24.4245C15.2924 21.8784 16.6192 19.5695 18.5814 17.8796C20.5436 16.1897 23.0236 15.2199 25.6117 15.1305C28.1997 15.0411 30.7408 15.8374 32.8149 17.3878L37.436 12.7667C34.0495 9.95505 29.7436 8.4937 25.3453 8.66334C20.947 8.83298 16.7665 10.6216 13.6066 13.6858C10.4467 16.7499 8.53032 20.8735 8.2255 25.2645C7.92069 29.6555 9.24893 34.0043 11.9551 37.4757C14.6613 40.9471 18.5546 43.2962 22.8873 44.0719C27.22 44.8476 31.6865 43.9953 35.429 41.6785C39.1715 39.3617 41.9261 35.7439 43.1637 31.5199C44.4014 27.2959 44.0347 22.7636 42.1343 18.7934C41.9484 18.4045 41.9247 17.9576 42.0683 17.5512C42.2119 17.1447 42.5111 16.812 42.9001 16.6261C43.289 16.4402 43.7359 16.4165 44.1423 16.5601C44.5488 16.7037 44.8816 17.0029 45.0674 17.3919Z" fill="#4AC866"/>
</svg>
